HIERARCHY
ROOT Hips
{
	OFFSET 0.000000 0.000000 0.000000
	CHANNELS 6 Xposition Yposition Zposition Zrotation Yrotation Xrotation 
	JOINT LHipJoint
	{
		OFFSET 0.000000 0.000000 0.000000
		CHANNELS 3 Zrotation Yrotation Xrotation
		JOINT LeftUpLeg
		{
			OFFSET 1.363060 -1.794630 0.839290
			CHANNELS 3 Zrotation Yrotation Xrotation
			JOINT LeftLeg
			{
				OFFSET 2.448110 -6.726130 0.000000
				CHANNELS 3 Zrotation Yrotation Xrotation
				JOINT LeftFoot
				{
					OFFSET 2.562200 -7.039590 0.000000
					CHANNELS 3 Zrotation Yrotation Xrotation
					JOINT LeftToeBase
					{
						OFFSET 0.157640 -0.433110 2.322550
						CHANNELS 3 Zrotation Yrotation Xrotation
						End Site
						{
							OFFSET 0.000000 0.000000 0.000000
						}
					}
				}
			}
		}
	}
	JOINT RHipJoint
	{
		OFFSET 0.000000 0.000000 0.000000
		CHANNELS 3 Zrotation Yrotation Xrotation
		JOINT RightUpLeg
		{
			OFFSET -1.305520 -1.794630 0.839290
			CHANNELS 3 Zrotation Yrotation Xrotation
			JOINT RightLeg
			{
				OFFSET -2.542530 -6.985550 0.000000
				CHANNELS 3 Zrotation Yrotation Xrotation
				JOINT RightFoot
				{
					OFFSET -2.568260 -7.056230 0.000000
					CHANNELS 3 Zrotation Yrotation Xrotation
					JOINT RightToeBase
					{
						OFFSET -0.164730 -0.452590 2.363150
						CHANNELS 3 Zrotation Yrotation Xrotation
						End Site
						{
							OFFSET 0.000000 0.000000 0.000000
						}
					}
				}
			}
		}
	}
	JOINT LowerBack
	{
		OFFSET 0.000000 0.000000 0.000000
		CHANNELS 3 Zrotation Yrotation Xrotation
		JOINT Spine
		{
			OFFSET 0.028270 2.035590 -0.193380
			CHANNELS 3 Zrotation Yrotation Xrotation
			JOINT Spine1
			{
				OFFSET 0.056720 2.048850 -0.042750
				CHANNELS 3 Zrotation Yrotation Xrotation
				JOINT Neck
				{
					OFFSET 0.000000 0.000000 0.000000
					CHANNELS 3 Zrotation Yrotation Xrotation
					JOINT Neck1
					{
						OFFSET -0.054170 1.746240 0.172020
						CHANNELS 3 Zrotation Yrotation Xrotation
						JOINT Head
						{
							OFFSET 0.104070 1.761360 -0.123970
							CHANNELS 3 Zrotation Yrotation Xrotation
							End Site
							{
								OFFSET 0.000000 0.000000 0.000000
							}
						}
					}
				}
				JOINT LeftShoulder
				{
					OFFSET 0.000000 0.000000 0.000000
					CHANNELS 3 Zrotation Yrotation Xrotation
					JOINT LeftArm
					{
						OFFSET 3.362410 1.200890 -0.311210
						CHANNELS 3 Zrotation Yrotation Xrotation
						JOINT LeftForeArm
						{
							OFFSET 4.983000 -0.000000 -0.000000
							CHANNELS 3 Zrotation Yrotation Xrotation
							JOINT LeftHand
							{
								OFFSET 3.483560 -0.000000 -0.000000
								CHANNELS 3 Zrotation Yrotation Xrotation
								JOINT LeftFingerBase
								{
									OFFSET 0.000000 0.000000 0.000000
									CHANNELS 3 Zrotation Yrotation Xrotation
									JOINT LeftHandIndex1
									{
										OFFSET 0.715260 -0.000000 -0.000000
										CHANNELS 3 Zrotation Yrotation Xrotation
										End Site
										{
											OFFSET 0.000000 0.000000 0.000000
										}
									}
								}
								JOINT LThumb
								{
									OFFSET 0.000000 0.000000 0.000000
									CHANNELS 3 Zrotation Yrotation Xrotation
									End Site
									{
										OFFSET 0.000000 0.000000 0.000000
									}
								}
							}
						}
					}
				}
				JOINT RightShoulder
				{
					OFFSET 0.000000 0.000000 0.000000
					CHANNELS 3 Zrotation Yrotation Xrotation
					JOINT RightArm
					{
						OFFSET -3.136600 1.374050 -0.404650
						CHANNELS 3 Zrotation Yrotation Xrotation
						JOINT RightForeArm
						{
							OFFSET -5.241900 -0.000000 -0.000000
							CHANNELS 3 Zrotation Yrotation Xrotation
							JOINT RightHand
							{
								OFFSET -3.444170 -0.000000 -0.000000
								CHANNELS 3 Zrotation Yrotation Xrotation
								JOINT RightFingerBase
								{
									OFFSET 0.000000 0.000000 0.000000
									CHANNELS 3 Zrotation Yrotation Xrotation
									JOINT RightHandIndex1
									{
										OFFSET -0.622530 -0.000000 -0.000000
										CHANNELS 3 Zrotation Yrotation Xrotation
										End Site
										{
											OFFSET 0.000000 0.000000 0.000000
										}
									}
								}
								JOINT RThumb
								{
									OFFSET 0.000000 0.000000 0.000000
									CHANNELS 3 Zrotation Yrotation Xrotation
									End Site
									{
										OFFSET 0.000000 0.000000 0.000000
									}
								}
							}
						}
					}
				}
			}
		}
	}
}
MOTION
Frames: 9
Frame Time: 0.008333
0.573207 17.705353 -6.950817 -7.880598 -5.513593 3.289459 -0.993323 3.983546 1.929168 -6.342753 -12.509462 -30.058145 -1.147365 5.806043 16.653671 -1.139893 8.393683 15.691982 0.032200 1.158000 3.183700 1.964239 -5.468521 6.161102 29.098089 10.430716 6.357696 -0.900533 -5.321929 22.971344 1.324511 -5.360721 -3.066115 -0.171000 2.663700 -7.343800 5.419387 1.661200 5.304186 5.185900 2.856919 3.177257 -1.310149 1.310048 -8.691167 -4.966911 -4.552916 -17.775398 2.971132 -4.976628 19.085678 -0.366000 -2.045800 9.561200 -7.213514 3.096072 -1.266708 -82.595714 7.137800 19.348858 10.039486 -17.247593 -1.554845 -0.411403 -0.506874 -5.389833 25.195055 9.628527 4.816800 -7.125000 0.000000 0.000000 -1.213400 41.160600 0.114900 10.934734 -1.614677 -2.157455 72.752386 8.451216 12.400163 -15.305959 28.726898 -4.678925 0.958031 -0.203485 -2.449314 -18.107586 22.075854 -7.437500 7.125000 0.000000 0.000000 6.156700 -6.732800 5.424600
0.577904 17.712714 -6.855514 -7.756761 -5.518793 3.196498 -0.993108 4.000221 1.951846 -6.506429 -12.531446 -29.944012 -1.108451 5.901243 16.999129 -1.008259 7.982425 16.036831 0.031521 1.145381 3.148949 1.938594 -5.479915 6.164335 29.007239 10.461793 6.482645 -0.993583 -5.476582 23.441651 1.323564 -5.330118 -2.791487 -0.194006 2.830954 -7.808819 5.249393 1.699573 5.430820 5.132429 2.899810 3.142150 -1.254180 1.330602 -8.800335 -4.947742 -4.579405 -17.816352 3.027242 -5.023689 19.276606 -0.355225 -2.053274 9.626092 -7.214427 3.104556 -1.263959 -82.574861 7.122197 19.191149 9.954205 -17.115551 -1.526636 -0.414770 -0.511626 -5.257174 25.310619 9.889847 4.968425 -7.125000 0.000000 0.000000 -1.134141 41.465695 0.099514 10.940026 -1.614486 -2.154451 72.797844 8.336440 12.120843 -15.236198 28.638424 -4.644892 0.959620 -0.205522 -2.346154 -18.114584 22.063526 -7.437354 7.125000 0.000000 0.000000 6.150148 -6.744012 5.417465
0.582602 17.720075 -6.760211 -7.632924 -5.523992 3.103537 -0.992892 4.016896 1.974524 -6.670105 -12.553430 -29.829878 -1.069537 5.996443 17.344587 -0.876625 7.571166 16.381679 0.030841 1.132762 3.114197 1.912949 -5.491309 6.167568 28.916388 10.492871 6.607593 -1.086633 -5.631235 23.911957 1.322617 -5.299515 -2.516859 -0.217012 2.998207 -8.273838 5.079398 1.737946 5.557454 5.078959 2.942701 3.107044 -1.198210 1.351157 -8.909502 -4.928573 -4.605895 -17.857307 3.083352 -5.070750 19.467534 -0.344450 -2.060749 9.690984 -7.215340 3.113039 -1.261210 -82.554007 7.106594 19.033440 9.868923 -16.983508 -1.498426 -0.418137 -0.516378 -5.124515 25.426182 10.151167 5.120050 -7.125000 0.000000 0.000000 -1.054883 41.770789 0.084128 10.945318 -1.614295 -2.151446 72.843303 8.221663 11.841524 -15.166438 28.549951 -4.610859 0.961209 -0.207558 -2.242993 -18.121583 22.051198 -7.437209 7.125000 0.000000 0.000000 6.143595 -6.755223 5.410331
0.586980 17.728300 -6.664044 -7.427484 -5.503338 3.044835 -1.002584 4.033802 2.006964 -6.976045 -12.493013 -29.700558 -1.053551 6.043717 17.594816 -0.750021 7.045704 16.399061 0.018577 0.801397 2.202931 1.888821 -5.500261 6.166023 28.709941 10.449828 6.585045 -1.201459 -5.820711 24.485400 1.325330 -5.274348 -2.123200 -0.240337 3.150775 -8.699134 4.800086 1.750414 5.578747 5.032306 2.931924 3.079354 -1.067072 1.353643 -8.963843 -4.921662 -4.632491 -17.842550 3.085322 -5.111873 19.587620 -0.347768 -2.075292 9.724544 -7.217087 3.115687 -1.259457 -82.594624 7.134915 18.807759 9.845628 -16.948012 -1.488457 -0.415179 -0.530083 -4.942645 25.387803 10.875247 5.457112 -7.125000 0.000000 0.000000 -1.173557 42.578606 0.067238 10.951435 -1.616832 -2.151339 72.852205 8.114960 11.714484 -15.095596 28.458897 -4.573119 0.967730 -0.207152 -2.207537 -18.287802 22.037032 -7.503831 7.125000 0.000000 0.000000 6.033562 -6.746779 5.313259
0.591339 17.736581 -6.567821 -7.216804 -5.481023 2.988333 -1.012912 4.050723 2.040030 -7.291121 -12.427304 -29.570262 -1.039037 6.087914 17.838929 -0.623740 6.512908 16.395413 0.005570 0.449563 1.235374 1.864790 -5.509057 6.164171 28.496070 10.402025 6.553025 -1.317683 -6.012423 25.065465 1.328278 -5.249530 -1.721897 -0.263682 3.302400 -9.121879 4.513752 1.761217 5.593275 4.986092 2.917701 3.052141 -0.931106 1.354968 -9.014664 -4.915538 -4.659095 -17.824216 3.083815 -5.152615 19.703157 -0.351990 -2.090290 9.756092 -7.218887 3.117960 -1.257769 -82.639188 7.166057 18.577713 9.826314 -16.918717 -1.479659 -0.411814 -0.544363 -4.757614 25.339537 11.629046 5.806083 -7.125000 0.000000 0.000000 -1.304943 43.418708 0.050250 10.957606 -1.619546 -2.151418 72.858760 8.008775 11.597223 -15.024684 28.367677 -4.535142 0.974567 -0.206588 -2.176428 -18.464246 22.022748 -7.574742 7.125000 0.000000 0.000000 5.916882 -6.737072 5.210413
0.597315 17.743542 -6.470534 -6.910115 -5.310446 2.959190 -1.034867 4.068014 2.070693 -7.714788 -12.479140 -29.422231 -1.032251 6.106204 18.053244 -0.470925 5.849930 16.404873 0.003701 0.391992 1.077032 1.842765 -5.511971 6.157721 28.168031 10.240514 6.331062 -1.461507 -6.242972 25.771956 1.320671 -5.199528 -1.277826 -0.285748 3.435034 -9.492600 4.169256 1.725121 5.527787 4.899399 2.831043 3.024468 -0.770114 1.323838 -9.024635 -4.962515 -4.680389 -17.845086 3.146139 -5.177719 19.830778 -0.325954 -2.094191 9.800700 -7.220640 3.121898 -1.254846 -82.675434 7.162093 18.298361 9.753892 -16.800516 -1.455595 -0.413514 -0.548078 -4.512763 25.338995 11.903594 5.936885 -7.125000 0.000000 0.000000 -1.338639 43.725850 0.041969 10.966324 -1.620204 -2.150761 72.875211 7.889032 11.427118 -14.947244 28.265634 -4.494250 0.983016 -0.199211 -2.151855 -18.729899 21.858427 -7.631697 7.125000 0.000000 0.000000 5.730126 -6.875883 5.029465
0.603514 17.750322 -6.373100 -6.590248 -5.119519 2.933801 -1.058418 4.085356 2.101027 -8.153359 -12.547108 -29.271766 -1.026525 6.120938 18.263468 -0.314468 5.169085 16.416132 0.003362 0.374810 1.029758 1.821015 -5.514078 6.150641 27.824322 10.063395 6.083029 -1.609119 -6.478852 26.495798 1.311615 -5.146069 -0.827885 -0.307637 3.565061 -9.856179 3.816777 1.682588 5.451318 4.807151 2.734443 2.996731 -0.605688 1.288254 -9.028999 -5.016781 -4.700954 -17.871338 3.217225 -5.200678 19.960058 -0.295765 -2.096569 9.847100 -7.222388 3.126066 -1.251754 -82.710538 7.153311 18.012242 9.674180 -16.670112 -1.429435 -0.415908 -0.550344 -4.259702 25.345003 12.112362 6.037741 -7.125000 0.000000 0.000000 -1.358927 43.959840 0.034883 10.975391 -1.620580 -2.150003 72.893021 7.767428 11.249759 -14.868908 28.162106 -4.452959 0.991685 -0.190900 -2.128179 -19.007797 21.673514 -7.686736 7.125000 0.000000 0.000000 5.533751 -7.035080 4.837798
0.609871 17.755118 -6.277411 -6.258002 -4.842282 2.881492 -1.085788 4.105283 2.125836 -8.589301 -12.686294 -29.099311 -1.015196 6.133319 18.457796 -0.179731 4.637704 16.699651 0.007116 0.515472 1.416384 1.796822 -5.513500 6.143403 27.482372 9.805851 5.785514 -1.780964 -6.736077 27.306381 1.302991 -5.100017 -0.353037 -0.323803 3.656531 -10.112397 3.485646 1.626352 5.417733 4.680088 2.623322 2.990357 -0.467874 1.243456 -9.040572 -5.080095 -4.738489 -17.980170 3.352446 -5.247452 20.130088 -0.247371 -2.101213 9.921682 -7.224539 3.134077 -1.247808 -82.695941 7.026503 17.756105 9.526795 -16.432918 -1.383168 -0.420998 -0.553529 -4.049178 25.439774 12.349353 6.177314 -7.125000 0.000000 0.000000 -1.298882 44.236321 0.025054 10.985375 -1.618029 -2.147038 72.951777 7.646802 10.921309 -14.772721 28.034049 -4.403279 0.997618 -0.194577 -1.926018 -19.169225 21.673143 -7.755926 7.125000 0.000000 0.000000 5.427606 -7.011511 4.746299
0.616263 17.759476 -6.182108 -5.923021 -4.545965 2.823232 -1.114003 4.125782 2.149423 -9.024660 -12.841223 -28.921994 -1.002628 6.145180 18.648610 -0.049795 4.139362 17.043354 0.011775 0.691025 1.898925 1.772089 -5.512327 6.136130 27.140810 9.530529 5.477060 -1.958165 -6.998020 28.136138 1.294463 -5.055603 0.127317 -0.338703 3.739478 -10.344883 3.159234 1.567086 5.393627 4.545328 2.508992 2.988705 -0.335943 1.196622 -9.053738 -5.145409 -4.779775 -18.107258 3.501845 -5.299491 20.309126 -0.194953 -2.106358 10.002494 -7.226780 3.142939 -1.243673 -82.670357 6.873604 17.506595 9.364451 -16.172118 -1.332457 -0.426684 -0.556918 -3.848058 25.554165 12.592583 6.325444 -7.125000 0.000000 0.000000 -1.221080 44.522196 0.014619 10.995561 -1.614832 -2.143585 73.019585 7.526393 10.559460 -14.672589 27.900570 -4.351743 1.002945 -0.200904 -1.684402 -19.304908 21.713565 -7.828244 7.125000 0.000000 0.000000 5.341407 -6.947541 4.676941
